<?xml version="1.0" encoding="UTF-8"?>
<svg id="Camada_1" data-name="Camada 1" xmlns="http://www.w3.org/2000/svg" viewBox="0 0 512 512">
  <defs>
    <style>
      .cls-1 {
        fill: #9954c3;
      }

      .cls-2 {
        fill: #202020;
      }

      .cls-3 {
        fill: #e6baff;
      }

      .cls-4 {
        fill: #562074;
      }

      .cls-5 {
        fill: #c068f2;
      }
    </style>
  </defs>
  <g>
    <g>
      <path class="cls-2" d="M373.93,297.67c-8.26,0-13.39,4.32-13.74,11.57l-.02.43h5.12l.03-.38c.38-4.51,3.52-7.1,8.61-7.1s8.47,3.17,8.47,8.07v1.74h-5.45c-8.3,0-18.18,2-18.18,11.52,0,5.93,4.44,9.77,11.32,9.77,5.84,0,10.23-1.72,12.31-4.77v4.37h5v-22.63c0-7.65-5.29-12.6-13.47-12.6M382.4,316.19v3.22c-.2,5.45-5.12,9.56-11.44,9.56-4.4,0-7.13-2.11-7.13-5.51,0-1.8,0-7.26,13.12-7.26h5.45Z"/>
      <path class="cls-2" d="M300.73,333.29c-4.71,0-8.5-1.53-11.37-4.62-2.87-3.09-4.3-7.42-4.3-13s1.43-9.87,4.3-12.96c2.87-3.09,6.66-4.62,11.37-4.62s8.47,1.53,11.34,4.62c2.87,3.09,4.3,7.39,4.3,12.96s-1.43,9.91-4.3,13c-2.87,3.09-6.66,4.62-11.34,4.62M300.73,328.74c3.22,0,5.8-1.15,7.8-3.44,1.97-2.26,2.96-5.48,2.96-9.62s-.99-7.33-2.96-9.62c-2.01-2.26-4.59-3.41-7.8-3.41s-5.83,1.15-7.8,3.41c-1.97,2.29-2.96,5.51-2.96,9.62s.99,7.36,2.96,9.62c1.97,2.29,4.59,3.44,7.8,3.44"/>
      <path class="cls-2" d="M236.22,297.67c-8.26,0-13.39,4.32-13.74,11.57l-.02.43h5.12l.03-.38c.38-4.51,3.52-7.1,8.61-7.1s8.47,3.17,8.47,8.07v1.74h-5.45c-8.3,0-18.18,2-18.18,11.52,0,5.93,4.44,9.77,11.32,9.77,5.84,0,10.23-1.72,12.31-4.77v4.37h5v-22.63c0-7.65-5.29-12.6-13.47-12.6M244.69,316.19v3.22c-.2,5.45-5.12,9.56-11.44,9.56-4.4,0-7.13-2.11-7.13-5.51,0-1.8,0-7.26,13.12-7.26h5.45Z"/>
      <path class="cls-2" d="M215.28,332.66c-2.48,0-4.46-.76-5.92-2.29-1.5-1.5-2.23-3.57-2.23-6.18v-34.59h4.87v34.27c0,2.58,1.59,4.24,3.92,4.24h3.92v4.55h-4.55Z"/>
      <path class="cls-2" d="M253.14,321c1.71-8.7,6.59-27.6,7.34-30.76h5.04l-6.01,22.64h.39c3.39-8.35,6.62-14.1,13.34-14.1,5.96,0,8.92,4.34,9.31,11.98.68,13.3-7.4,23.18-18.37,23.18-6.19,0-12.93-3.3-11.04-12.94M277.35,311.21c-.28-5.45-2.68-8.68-6.38-8.68-3.97,0-8.6,6.15-11.99,16.8-.21.66-.69,2.73-.69,2.73-1.35,7.73,2.9,9.81,6.5,9.81,7.54,0,13.08-10.65,12.57-20.65"/>
      <path class="cls-2" d="M330.88,332.66c-2.45,0-4.46-.8-6.05-2.42-1.62-1.62-2.42-3.63-2.42-6.05v-20.9h-5.22v-4.55h5.22l.67-9.14h4.24v9.14h8.79v4.55h-8.79v20.9c0,2.26,1.62,3.92,3.92,3.92h4.87v4.55h-5.22Z"/>
      <path class="cls-2" d="M340.5,332.66v-33.92h3.92l.67,4.55h.32c1.82-3.03,4.87-4.55,9.14-4.55h3.57v4.55h-3.57c-2.61,0-4.78.8-6.53,2.42-1.75,1.62-2.61,3.63-2.61,6.08v20.86h-4.91Z"/>
      <path class="cls-2" d="M402.56,332.66c-2.45,0-4.46-.8-6.05-2.42-1.62-1.62-2.42-3.63-2.42-6.05v-20.9h-5.22v-4.55h5.22l.67-9.14h4.24v9.14h8.79v4.55h-8.79v20.9c0,2.26,1.62,3.92,3.92,3.92h4.87v4.55h-5.22Z"/>
    </g>
    <g>
      <path class="cls-2" d="M208.06,179.21h22.61l-1.46,32.46-1.6,32.06,14.1-32.06,14.23-32.46h21.42l.53,32.46.4,32.72,12.11-32.72,12.24-32.46h22.61l-38.57,93.11h-25.81l-.27-31.26-.13-31.66-13.43,31.66-13.57,31.26h-26.34l.93-93.11Z"/>
      <path class="cls-2" d="M330.83,179.21h32.72l1.86,30.73,1.46,30.86,14.76-30.86,14.77-30.73h34.32l-19.82,93.11h-21.81l10.11-46.56,4.79-21.42-10.24,21.42-22.48,46.56h-21.15l-2.66-46.56-1.2-21.68-4.39,21.68-9.58,46.56h-21.15l19.69-93.11Z"/>
      <path class="cls-2" d="M424.74,239.86v-1.46h23.68v1.46c0,9.84,5.19,16.76,18.75,16.76,9.31,0,14.9-4.26,14.9-10.11,0-6.52-9.18-9.71-19.69-13.17-13.83-4.65-29.93-10.24-29.93-25.67,0-17.96,14.5-30.2,37.78-30.2,27,0,41.77,14.23,41.77,34.32v.27h-22.75c-.13-9.84-5.99-17.16-18.76-17.16-8.65,0-13.57,4.12-13.57,9.45,0,6.52,9.44,9.44,20.09,13.17,13.57,4.65,29.26,10.38,29.26,25.54,0,19.42-18.36,30.99-39.91,30.99-27,0-41.63-13.3-41.63-34.18Z"/>
    </g>
  </g>
  <g>
    <g>
      <path class="cls-4" d="M169.52,263.47c-3.41,36.51-31.61,65.93-67.56,71.21v6.07c0,4.99-6.02,7.48-9.54,3.95l-9.52-9.52-14.85-14.85c-2.18-2.18-2.18-5.72,0-7.91l13.23-13.24,11.14-11.14c3.52-3.52,9.54-1.03,9.54,3.95v6.58c15.85-4.33,28.17-17.3,31.57-33.51l13.24,13.24c2.18,2.18,5.72,2.18,7.91,0l14.85-14.83Z"/>
      <path class="cls-1" d="M179.05,253.94l-9.54,9.54-14.85,14.83c-2.18,2.18-5.72,2.18-7.91,0l-13.24-13.24-11.13-11.13c-3.52-3.53-1.03-9.55,3.95-9.55h6.56c-4.32-15.86-17.29-28.18-33.49-31.58l13.23-13.23c2.18-2.18,2.18-5.72,0-7.91l-14.83-14.85c36.51,3.41,65.93,31.61,71.21,67.56h6.08c4.98,0,7.48,6.02,3.95,9.55Z"/>
      <path class="cls-5" d="M112.65,199.58l-13.23,13.23-11.13,11.14c-3.53,3.53-9.55,1.03-9.55-3.95v-6.56c-15.85,4.32-28.18,17.29-31.58,33.49l-13.23-13.23c-2.18-2.18-5.72-2.18-7.91,0l-14.85,14.83c3.41-36.51,31.61-65.93,67.56-71.21v-6.08c0-4.98,6.02-7.47,9.55-3.95l9.52,9.53,14.83,14.85c2.18,2.18,2.18,5.72,0,7.91Z"/>
    </g>
    <path class="cls-3" d="M82.9,335.17c-36.51-3.41-65.94-31.61-71.22-67.56h-6.08c-4.98,0-7.48-6.03-3.95-9.55l9.54-9.53,14.85-14.83c2.18-2.18,5.72-2.18,7.91,0l13.23,13.23,11.14,11.14c3.53,3.52,1.03,9.55-3.95,9.55h-6.56c4.32,15.85,17.29,28.17,33.49,31.57l-13.23,13.24c-2.18,2.18-2.18,5.72,0,7.91l14.85,14.85Z"/>
  </g>
</svg>